<svg xmlns="http://www.w3.org/2000/svg" viewBox="0 0 256 256">
	<defs>
		<linearGradient id="harmonyGradient" x1="0%" y1="0%" x2="100%" y2="100%">
			<stop offset="0%" stop-color="#79FFE1"/>
			<stop offset="100%" stop-color="#00B3E6"/>
		</linearGradient>
	</defs>
	<rect width="256" height="256" rx="128" fill="#ffffff"/>
	<g transform="translate(40,44) scale(0.7)" fill="url(#harmonyGradient)">
		<path d="M56 40c-17.673 0-32 14.327-32 32v72c0 17.673 14.327 32 32 32s32-14.327 32-32V72c0-17.673-14.327-32-32-32zm0 24c4.418 0 8 3.582 8 8v72c0 4.418-3.582 8-8 8s-8-3.582-8-8V72c0-4.418 3.582-8 8-8z"/>
		<path d="M184 40c-17.673 0-32 14.327-32 32v72c0 17.673 14.327 32 32 32s32-14.327 32-32V72c0-17.673-14.327-32-32-32zm0 24c4.418 0 8 3.582 8 8v72c0 4.418-3.582 8-8 8s-8-3.582-8-8V72c0-4.418 3.582-8 8-8z"/>
		<path d="M88 88c0-13.255 10.745-24 24-24h32c13.255 0 24 10.745 24 24v12c0 13.255-10.745 24-24 24h-32c-13.255 0-24-10.745-24-24V88zm0 64c0-13.255 10.745-24 24-24h32c13.255 0 24 10.745 24 24v12c0 13.255-10.745 24-24 24h-32c-13.255 0-24-10.745-24-24v-12z"/>
	</g>
</svg>